<svg width="116" height="131" viewBox="0 0 116 131" fill="none" xmlns="http://www.w3.org/2000/svg">
<path fill-rule="evenodd" clip-rule="evenodd" d="M4.19961 15.0001C4.19961 9.03542 9.03493 4.2001 14.9996 4.2001H65.3234C65.6779 4.2001 66.0307 4.21753 66.3805 4.25192V28.4197C66.3805 32.3962 69.604 35.6197 73.5805 35.6197H95.9996V80.38C94.26 80.0002 92.4532 79.8001 90.5996 79.8001C76.682 79.8001 65.3996 91.0825 65.3996 105C65.3996 109.12 66.3883 113.009 68.1414 116.443H14.9996C9.03493 116.443 4.19961 111.608 4.19961 105.643V15.0001ZM70.38 120.043H14.9996C7.04671 120.043 0.599609 113.596 0.599609 105.643V15.0001C0.599609 7.04719 7.04671 0.600098 14.9996 0.600098H65.3234C69.1425 0.600098 72.8052 2.11724 75.5057 4.81776L95.3819 24.694C98.0825 27.3945 99.5996 31.0572 99.5996 34.8763V35.4917L99.6001 35.6197L99.5996 81.4548C109.073 85.0779 115.8 94.2534 115.8 105C115.8 118.918 104.517 130.2 90.5996 130.2C82.3205 130.2 74.9739 126.208 70.38 120.043ZM20.9268 26.3273C21.6298 25.6244 22.7695 25.6244 23.4724 26.3273L29.8496 32.7045L36.2268 26.3273C36.9298 25.6244 38.0695 25.6244 38.7724 26.3273C39.4753 27.0302 39.4753 28.1699 38.7724 28.8729L32.3952 35.2501L38.7724 41.6273C39.4753 42.3303 39.4753 43.4699 38.7724 44.1729C38.0695 44.8758 36.9298 44.8758 36.2268 44.1729L29.8496 37.7957L23.4724 44.1729C22.7695 44.8758 21.6298 44.8758 20.9268 44.1729C20.2239 43.4699 20.2239 42.3303 20.9268 41.6273L27.304 35.2501L20.9268 28.8729C20.2239 28.1699 20.2239 27.0302 20.9268 26.3273ZM20.3996 60.9001C20.3996 58.4148 22.4143 56.4001 24.8996 56.4001H51.8996C54.3849 56.4001 56.3996 58.4148 56.3996 60.9001C56.3996 63.3854 54.3849 65.4001 51.8996 65.4001H24.8996C22.4143 65.4001 20.3996 63.3854 20.3996 60.9001ZM24.8996 60.0001C24.4026 60.0001 23.9996 60.403 23.9996 60.9001C23.9996 61.3972 24.4026 61.8001 24.8996 61.8001H51.8996C52.3967 61.8001 52.7996 61.3972 52.7996 60.9001C52.7996 60.403 52.3967 60.0001 51.8996 60.0001H24.8996ZM24.8996 70.8001C22.4143 70.8001 20.3996 72.8148 20.3996 75.3001C20.3996 77.7854 22.4143 79.8001 24.8996 79.8001H75.2996C77.7849 79.8001 79.7996 77.7854 79.7996 75.3001C79.7996 72.8148 77.7849 70.8001 75.2996 70.8001H24.8996ZM23.9996 75.3001C23.9996 74.803 24.4026 74.4001 24.8996 74.4001H75.2996C75.7967 74.4001 76.1996 74.803 76.1996 75.3001C76.1996 75.7972 75.7967 76.2001 75.2996 76.2001H24.8996C24.4026 76.2001 23.9996 75.7972 23.9996 75.3001ZM105.147 15.4064C103.965 13.7289 101.836 13.0044 99.8766 13.6126C96.8094 14.5644 95.5615 18.2304 97.4111 20.8559L101.334 26.4242C102.55 28.15 103.208 30.2067 103.22 32.3177L103.258 39.1607C103.272 41.7781 105.404 43.889 108.022 43.8774C110.642 43.8658 112.757 41.7314 112.744 39.1108L112.707 31.6783C112.689 28.0468 111.559 24.5082 109.467 21.5394L105.147 15.4064ZM100.944 17.0508C101.412 16.9054 101.921 17.0787 102.203 17.4797L106.524 23.6127C108.191 25.9796 109.093 28.8008 109.107 31.6961L109.144 39.1286C109.147 39.7602 108.638 40.2747 108.006 40.2774C107.375 40.2802 106.861 39.7715 106.858 39.1406L106.819 32.2976C106.804 29.4512 105.916 26.6779 104.277 24.3509L100.354 18.7826C99.9119 18.1549 100.21 17.2784 100.944 17.0508ZM68.9996 105C68.9996 93.0707 78.6703 83.4001 90.5996 83.4001C102.529 83.4001 112.2 93.0707 112.2 105C112.2 116.929 102.529 126.6 90.5996 126.6C78.6703 126.6 68.9996 116.929 68.9996 105ZM86.0996 93.3001C86.0996 90.8148 88.1143 88.8001 90.5996 88.8001C93.0849 88.8001 95.0996 90.8148 95.0996 93.3001V104.1C95.0996 106.585 93.0849 108.6 90.5996 108.6C88.1143 108.6 86.0996 106.585 86.0996 104.1V93.3001ZM90.5996 92.4001C90.1026 92.4001 89.6996 92.803 89.6996 93.3001V104.1C89.6996 104.597 90.1026 105 90.5996 105C91.0967 105 91.4996 104.597 91.4996 104.1V93.3001C91.4996 92.803 91.0967 92.4001 90.5996 92.4001ZM90.5996 121.2C88.1143 121.2 86.0996 119.185 86.0996 116.7C86.0996 114.215 88.1143 112.2 90.5996 112.2C93.0849 112.2 95.0996 114.215 95.0996 116.7C95.0996 119.185 93.0849 121.2 90.5996 121.2ZM89.6996 116.7C89.6996 117.197 90.1026 117.6 90.5996 117.6C91.0967 117.6 91.4996 117.197 91.4996 116.7C91.4996 116.203 91.0967 115.8 90.5996 115.8C90.1026 115.8 89.6996 116.203 89.6996 116.7Z" fill="#646464"/>
</svg>
